<?xml version="1.0" encoding="UTF-8"?>
<svg id="Capa_1" data-name="Capa 1" xmlns="http://www.w3.org/2000/svg" viewBox="0 0 1043.5 827.69">
  <defs>
    <style>
      .cls-1 {
        fill: #03b6a3;
      }

      .cls-1, .cls-2 {
        stroke: #f5bb16;
      }

      .cls-1, .cls-2, .cls-3 {
        stroke-miterlimit: 10;
        stroke-width: 20px;
      }

      .cls-2, .cls-3 {
        fill: none;
      }

      .cls-3 {
        stroke: #1ba260;
      }
    </style>
  </defs>
  <g>
    <circle class="cls-2" cx="45.89" cy="428.54" r="35"/>
    <circle class="cls-2" cx="45" cy="663.44" r="35"/>
    <line class="cls-1" x1="80.89" y1="428.54" x2="260.89" y2="428.54"/>
    <path class="cls-2" d="M160.89,570.99c-43.44,0-104.43,0-148.72,0-1.44,0-1.67,0-.67,0,.81,0,2.44,0,4.84,0,46.79,0,98.38,0,144.55,0h0Z"/>
    <circle class="cls-2" cx="203.95" cy="570.99" r="35"/>
    <path class="cls-2" d="M160.89,523.21c-43.44,0-104.43,0-148.72,0-1.44,0-1.67,0-.67,0h4.84c46.79,0,98.38,0,144.55,0h0Z"/>
    <line class="cls-2" x1="153.81" y1="526.14" x2="189.22" y2="490.73"/>
    <path class="cls-2" d="M182.33,493.32c28.96,0,69.62,0,99.14,0,.96,0,1.11,0,.45,0h-3.22c-31.19,0-65.59,0-96.37,0h0Z"/>
    <line class="cls-2" x1="253.95" y1="431.54" x2="295.49" y2="390"/>
    <path class="cls-2" d="M556.19,570.99c35.84,23.36,80.57,52.14,120.29,77.98,6.14,3.91,12.55,7.35,19.48,9.39,9.43,2.9,19.91,3.07,29.87,2.99,42.22-.41,84.76.54,124.85-.42,4.14-.24,8.28-.67,12.32-1.55,8.76-1.87,17.12-6.29,21.36-14.3,5.59-10.06,1.54-23.24-7.87-29.49-9.98-7.03-23.14-7.03-35.01-7.25-42.5-.47-93.94-.05-138.72-.02-9.11-.05-12.4-2.59-19.32-7.34-63.6-42.17-162.3-102.75-217.22-141.49-7.68-7.81,16.86-5.68,24.13-6.07,15.85,0,31.9-.07,47.73-.11,45.22-.43,96.64,1.55,138.81-.61,26.55-1.66,39.5-31.66,21.29-51.3-4.77-4.79-9.57-7.04-14.91-7.98-80.99-1.64-286.04.02-395.34-.54"/>
    <path class="cls-2" d="M709.18,741.29c3.12,19.05,1.17,39.53-18.16,48.67-13.95,6.2-30.76,4.6-46.04,4.79-9.77-.16-18.91-2.18-27.09-7.22-33.15-21.18-80.57-53.75-114.09-75.86-3.72-2.48-8.24-4.86-12.43-3.75-6.43,1.51-8.74,8.45-5.64,14.51,2.32,4.7,7.4,7.82,11.79,10.76,11.22,7.36,23.24,15.23,34,22.29,6.14,4.17,12.86,8.05,17.6,13.76,9.05,11.04,3.24,26.25-6.46,36.4-11.91,12.5-31.87,14.37-47.48,9.72-5.68-1.54-11.45-3.89-16.19-6.22-54.74-28.18-135.83-92.9-200.67-134.79-6.23-3.68-12.84-6.71-19.88-8.5-18.12-4.34-37.69-2.5-56.37-2.91-40.23.08-82.33.59-122.05.51"/>
    <path class="cls-2" d="M785.15,661.37s19.07,9.47,21.33,11c9.96,6.74,19.63,16.36,20.6,28.94.8,10.38-4.8,20.82-13.66,26.14-13.3,7.87-30.02,6.52-44.99,6.86-25.86,0-53.22.07-78.75.07-7.41-.13-14.8-1.08-21.66-3.7-5.55-2.07-10.9-5.22-15.96-8.53-39.27-25.98-84.47-55.23-118.88-78.04"/>
    <circle class="cls-2" cx="744.82" cy="197.43" r="35"/>
    <path class="cls-2" d="M744.82,231.43c.65,23.7.55,51.53,1.54,75.96,1.55,23.4-.7,26.2-17.15,41.59-14.43,13.54-29.9,28.7-43.85,42.19"/>
    <path class="cls-2" d="M823.26,341.94c.25,22.91.34,46.59.5,69.71.35,14.65.85,28.87-9.87,40.23-21.1,21.34-46.72,46.71-68.48,68.84-4.84,4.85-9.54,9.25-15.66,12.17-6.02,2.93-13.06,3.79-19.96,3.74-41.33-.59-88.49-.1-127.19-.64"/>
    <circle class="cls-2" cx="823.26" cy="306.94" r="35"/>
  </g>
  <g>
    <line class="cls-3" x1="998.5" y1="271.94" x2="998.5" y2="462.8"/>
    <circle class="cls-3" cx="913.93" cy="45" r="35"/>
    <circle class="cls-3" cx="998.5" cy="236.94" r="35"/>
    <path class="cls-3" d="M913.93,80c.9,96.28,1.44,255.85,1.59,358.83-.12,17.01-9.73,30.46-22.37,41.82-7.67,7.57-15.93,13.7-20.88,21.65-8.37,15.16,3.67,36.52,19.78,41.43,12.05,4.61,21.21.65,29.14-7.97,21.7-21.72,60.39-60.21,80.4-80.32"/>
  </g>
</svg>